<svg width="305" height="185" viewBox="0 0 305 185" fill="none" xmlns="http://www.w3.org/2000/svg">
<path d="M0 16C0 7.16344 7.16344 0 16 0H289C297.837 0 305 7.16344 305 16V185H0V16Z" fill="#E5E7EB"/>
<path fill-rule="evenodd" clip-rule="evenodd" d="M139.526 79.6636C139.526 75.9847 136.557 73 132.897 73C129.238 73 126.268 75.9847 126.268 79.6636C126.268 83.3425 129.238 86.3272 132.897 86.3272C136.557 86.3272 139.526 83.3425 139.526 79.6636ZM174.879 92.9908C171.135 85.1733 169.355 77.6339 160.517 78.553C151.679 79.4721 145.602 94.8683 142.84 96.3226C140.078 97.777 142.84 88.9186 137.316 90.7696C131.792 92.6206 128.138 98.8694 126.268 101.876C124.399 104.882 106.382 105.813 126.268 108.539C146.155 111.265 166.58 111.194 174.879 108.539C183.178 105.885 178.623 100.808 174.879 92.9908Z" fill="#F3F4F6"/>
</svg>
