<svg width="18" height="20" viewBox="0 0 18 20" fill="none" xmlns="http://www.w3.org/2000/svg">
<path fill-rule="evenodd" clip-rule="evenodd" d="M2.8944 0.311363C3.03989 0.11551 3.26986 0 3.51429 0H14.4857C14.7301 0 14.9601 0.11551 15.1056 0.311363L17.8485 4.00367C17.9469 4.13616 18 4.29667 18 4.46154V4.8718V17.3846C18 18.0752 17.7284 18.7394 17.2419 19.2306C16.755 19.7221 16.0927 20 15.4 20H2.6C1.90732 20 1.24498 19.7221 0.758145 19.2306C0.271629 18.7394 0 18.0752 0 17.3846V4.8718V4.46154C0 4.29667 0.0531245 4.13616 0.151542 4.00367L2.8944 0.311363ZM14.0971 1.53846L16.0019 4.10256H1.99811L3.90287 1.53846H14.0971ZM16.4571 5.64103H1.54286V17.3846C1.54286 17.6733 1.65653 17.9483 1.85586 18.1495C2.05488 18.3504 2.32274 18.4615 2.6 18.4615H15.4C15.6773 18.4615 15.9451 18.3504 16.1441 18.1495C16.3435 17.9483 16.4571 17.6733 16.4571 17.3846V5.64103ZM5.65714 7.94867C5.65714 7.52384 5.31176 7.17944 4.88571 7.17944C4.45967 7.17944 4.11429 7.52384 4.11429 7.94867C4.11429 9.24075 4.62903 10.4799 5.54528 11.3936C6.46153 12.3072 7.70423 12.8205 9 12.8205C10.2958 12.8205 11.5385 12.3072 12.4547 11.3936C13.371 10.4799 13.8857 9.24075 13.8857 7.94867C13.8857 7.52384 13.5403 7.17944 13.1143 7.17944C12.6882 7.17944 12.3429 7.52384 12.3429 7.94867C12.3429 8.83273 11.9907 9.68058 11.3638 10.3057C10.7368 10.9308 9.88658 11.282 9 11.282C8.11342 11.282 7.26315 10.9308 6.63624 10.3057C6.00934 9.68058 5.65714 8.83273 5.65714 7.94867Z" fill="#111827"/>
</svg>
